<svg version="1.1" xmlns="http://www.w3.org/2000/svg" xmlns:xlink="http://www.w3.org/1999/xlink" width="273" height="31.5" viewBox="0,0,273,31.5"><g transform="translate(-104.16291,-250.19499)"><g data-paper-data="{&quot;isPaintingLayer&quot;:true}" fill="none" fill-rule="nonzero" stroke="#0042cf" stroke-width="8.5" stroke-linecap="butt" stroke-linejoin="miter" stroke-miterlimit="10" stroke-dasharray="" stroke-dashoffset="0" style="mix-blend-mode: normal"><path d="M109.91291,275.44499c0,0 -1.5,-0.43796 -1.5,-3.5163c0,-3.82902 0,-8.64882 0,-11c0,-2.65745 2,-5.4837 2,-5.4837c0,0 0.41397,-1 3.75,-1c20.1219,0 213.25122,0 252,0c4.34603,0 5.75,2 5.75,2c0,0 1,1.47953 1,3.9837c0,2.00044 0,5.92411 0,9.5c0,3.97278 -1,5.5163 -1,5.5163c0,0 -1.40397,2 -5.75,2c-38.74878,0 -231.8781,0 -252,0c-3.33603,0 -4.25,-2 -4.25,-2z"/></g></g></svg>