<svg version="1.1" xmlns="http://www.w3.org/2000/svg" xmlns:xlink="http://www.w3.org/1999/xlink" width="163.99999" height="118.17519" viewBox="0,0,163.99999,118.17519"><defs><linearGradient x1="240" y1="167" x2="240" y2="193" gradientUnits="userSpaceOnUse" id="color-1"><stop offset="0" stop-color="#000000"/><stop offset="1" stop-color="#090975"/></linearGradient></defs><g transform="translate(-158,-162.75)"><g data-paper-data="{&quot;isPaintingLayer&quot;:true}" fill="url(#color-1)" fill-rule="nonzero" stroke="#0084db" stroke-width="8.5" stroke-linecap="butt" stroke-linejoin="miter" stroke-miterlimit="10" stroke-dasharray="" stroke-dashoffset="0" style="mix-blend-mode: normal"><path d="M163.13185,190.73913c0,0 -0.88185,-0.49509 -0.88185,-3.97495c0,-4.32846 0,-9.77693 0,-12.43478c0,-3.00407 1.1758,-6.19897 1.1758,-6.19897c0,0 0.24337,-1.13043 2.20463,-1.13043c11.8297,0 125.37076,0 148.15123,0c2.55504,0 3.38043,2.26087 3.38043,2.26087c0,0 0.5879,1.67251 0.5879,4.50331c0,2.26137 0,6.69682 0,10.73913c0,4.49097 -0.5879,6.23582 -0.5879,6.23582c0,0 -0.8254,2.26087 -3.38043,2.26087c-2.79328,0 -27.5082,0 -27.5082,0c0,0 -0.56878,45.4613 1.20227,60.48813c1.09526,9.29295 8.40888,21.05991 8.40888,21.05991l-33.80656,-0.09881l-1.36895,-81.44923l-37.05841,-0.19817l-0.70765,83.54003l-27.03662,0.28728l1.18904,-83.62914c0,0 -28.01961,0 -31.46504,0c-1.96126,0 -2.49858,-2.26087 -2.49858,-2.26087z"/></g></g></svg>