<svg version="1.1" xmlns="http://www.w3.org/2000/svg" xmlns:xlink="http://www.w3.org/1999/xlink" width="537.42755" height="448.18676" viewBox="0,0,537.42755,448.18676"><defs><linearGradient x1="79.15208" y1="28.96588" x2="79.15208" y2="145.9241" gradientUnits="userSpaceOnUse" id="color-1"><stop offset="0" stop-color="#668bff" stop-opacity="0"/><stop offset="1" stop-color="#668bff"/></linearGradient></defs><g transform="translate(-19.16157,90.89756)"><g data-paper-data="{&quot;isPaintingLayer&quot;:true}" fill-rule="nonzero" stroke-linejoin="miter" stroke-miterlimit="10" stroke-dasharray="" stroke-dashoffset="0" style="mix-blend-mode: normal"><path d="M243.20568,41.33343l-17.59412,69.81724l-69.81724,-17.59412l17.59412,-69.81724z" data-paper-data="{&quot;index&quot;:null}" fill="none" stroke="#0070ff" stroke-width="8.5" stroke-linecap="butt"/><path d="M219.98072,-72.586l51.8511,94.92873l-105.37683,-9.62928z" fill="none" stroke="#1f55c9" stroke-width="8.5" stroke-linecap="round"/><path d="M104.43968,28.96588l0.22008,77.92804l-50.09944,39.03018l-0.91591,-77.38595z" data-paper-data="{&quot;index&quot;:null}" fill="url(#color-1)" stroke="#0042cf" stroke-width="8.5" stroke-linecap="butt"/><path d="M272.81401,-5.01021c0,0 -1.59424,-0.43796 -1.59424,-3.5163c0,-3.82902 0,-8.64882 0,-11c0,-2.65745 2.12566,-5.4837 2.12566,-5.4837c0,0 0.43998,-1 3.98563,-1c21.38622,0 226.65046,0 267.83395,0c4.61909,0 6.11128,2 6.11128,2c0,0 1.06283,1.47953 1.06283,3.9837c0,2.00044 0,5.92411 0,9.5c0,3.97278 -1.06283,5.5163 -1.06283,5.5163c0,0 -1.49219,2 -6.11128,2c-41.18349,0 -246.44773,0 -267.83395,0c-3.54566,0 -4.51704,-2 -4.51704,-2z" fill="none" stroke="#0042cf" stroke-width="8.5" stroke-linecap="butt"/><path d="M295.00311,145.98791l67.33714,-87.61941" fill="none" stroke="#0424c9" stroke-width="8.5" stroke-linecap="round"/><path d="M400.00876,58.56501l-70.00396,91.08949" fill="none" stroke="#0ca3f8" stroke-width="8.5" stroke-linecap="round"/><path d="M542.48879,8.81892l-0.29017,344.21155l-90.7055,-0.1864l0.28849,-344.19248z" fill="none" stroke="#14a1ff" stroke-width="8.5" stroke-linecap="butt"/><path d="M498.34793,173.51962l40.00226,175.34324" fill="none" stroke="#4879e2" stroke-width="4.5" stroke-linecap="round"/><g fill="none" stroke="#3849ff" stroke-linecap="round"><path d="M27.86504,-23.78262l48.42869,-61.1446l79.17442,62.70894z" stroke-width="8.5"/><path d="M87.75747,-72.02054l-9.31321,11.75858l-10.97467,-8.69233" stroke-width="3"/></g><path d="M219.5,-64l-8,76" fill="none" stroke="#0036aa" stroke-width="5" stroke-linecap="round"/></g></g></svg>