<svg version="1.1" xmlns="http://www.w3.org/2000/svg" xmlns:xlink="http://www.w3.org/1999/xlink" width="383.5" height="218.5" viewBox="0,0,383.5,218.5"><g transform="translate(2.75,-159.75)"><g data-paper-data="{&quot;isPaintingLayer&quot;:true}" fill="none" fill-rule="nonzero" stroke-width="8.5" stroke-linejoin="miter" stroke-miterlimit="10" stroke-dasharray="" stroke-dashoffset="0" style="mix-blend-mode: normal"><path d="M6.06602,166c0,0 1.00727,-2 4.68384,-2c22.17593,0 235.01979,0 277.72401,0c4.78967,0 6.33695,2 6.33695,2c0,0 1.10209,1.54352 1.10209,5.5163c0,3.57589 0,7.49956 0,9.5c0,2.50417 -1.10209,3.9837 -1.10209,3.9837c0,0 -1.54728,2 -6.33695,2c-42.70422,0 -255.54808,0 -277.72401,0c-3.67657,0 -4.1328,-1 -4.1328,-1c0,0 -2.20415,-2.82625 -2.20415,-5.4837c0,-2.35118 0,-7.17098 0,-11c0,-3.07834 1.65313,-3.5163 1.65313,-3.5163z" data-paper-data="{&quot;index&quot;:null}" stroke="#003099" stroke-linecap="butt"/><path d="M376.5,164.44499v72h-72v-72z" data-paper-data="{&quot;index&quot;:null}" stroke="#0070ff" stroke-linecap="butt"/><path d="M325.5,364.44499v-119h29v120" data-paper-data="{&quot;index&quot;:null}" stroke="#0042cf" stroke-linecap="round"/><path d="M1.5,343.56302h252v30.43698" stroke="#0042cf" stroke-linecap="round"/></g></g></svg>