<svg version="1.1" xmlns="http://www.w3.org/2000/svg" xmlns:xlink="http://www.w3.org/1999/xlink" width="280.02949" height="58.97825" viewBox="0,0,280.02949,58.97825"><defs><linearGradient x1="157.50003" y1="195.98913" x2="157.50003" y2="166.01088" gradientUnits="userSpaceOnUse" id="color-1"><stop offset="0" stop-color="#dddddd"/><stop offset="1" stop-color="#979797"/></linearGradient><linearGradient x1="180.50003" y1="195.98913" x2="180.50003" y2="166.01088" gradientUnits="userSpaceOnUse" id="color-2"><stop offset="0" stop-color="#dddddd"/><stop offset="1" stop-color="#979797"/></linearGradient><linearGradient x1="204.50003" y1="195.98913" x2="204.50003" y2="166.01088" gradientUnits="userSpaceOnUse" id="color-3"><stop offset="0" stop-color="#dddddd"/><stop offset="1" stop-color="#979797"/></linearGradient><linearGradient x1="228.50002" y1="195.98913" x2="228.50002" y2="166.01088" gradientUnits="userSpaceOnUse" id="color-4"><stop offset="0" stop-color="#dddddd"/><stop offset="1" stop-color="#979797"/></linearGradient><linearGradient x1="251.50002" y1="195.98913" x2="251.50002" y2="166.01088" gradientUnits="userSpaceOnUse" id="color-5"><stop offset="0" stop-color="#dddddd"/><stop offset="1" stop-color="#979797"/></linearGradient><linearGradient x1="275.50001" y1="195.98913" x2="275.50001" y2="166.01088" gradientUnits="userSpaceOnUse" id="color-6"><stop offset="0" stop-color="#dddddd"/><stop offset="1" stop-color="#979797"/></linearGradient><linearGradient x1="298.50001" y1="195.98913" x2="298.50001" y2="166.01088" gradientUnits="userSpaceOnUse" id="color-7"><stop offset="0" stop-color="#dddddd"/><stop offset="1" stop-color="#979797"/></linearGradient><linearGradient x1="321.50001" y1="195.98913" x2="321.50001" y2="166.01088" gradientUnits="userSpaceOnUse" id="color-8"><stop offset="0" stop-color="#dddddd"/><stop offset="1" stop-color="#979797"/></linearGradient><linearGradient x1="344.50001" y1="195.98913" x2="344.50001" y2="166.01088" gradientUnits="userSpaceOnUse" id="color-9"><stop offset="0" stop-color="#dddddd"/><stop offset="1" stop-color="#979797"/></linearGradient><linearGradient x1="87.50002" y1="137.01087" x2="87.50002" y2="166.98913" gradientUnits="userSpaceOnUse" id="color-10"><stop offset="0" stop-color="#dddddd"/><stop offset="1" stop-color="#979797"/></linearGradient><linearGradient x1="110.50002" y1="137.01087" x2="110.50002" y2="166.98913" gradientUnits="userSpaceOnUse" id="color-11"><stop offset="0" stop-color="#dddddd"/><stop offset="1" stop-color="#979797"/></linearGradient><linearGradient x1="134.5" y1="137.01087" x2="134.5" y2="166.98913" gradientUnits="userSpaceOnUse" id="color-12"><stop offset="0" stop-color="#dddddd"/><stop offset="1" stop-color="#979797"/></linearGradient><linearGradient x1="157.50002" y1="137.01088" x2="157.50002" y2="166.98915" gradientUnits="userSpaceOnUse" id="color-13"><stop offset="0" stop-color="#dddddd"/><stop offset="1" stop-color="#979797"/></linearGradient><linearGradient x1="180.50003" y1="137.01088" x2="180.50003" y2="166.98915" gradientUnits="userSpaceOnUse" id="color-14"><stop offset="0" stop-color="#dddddd"/><stop offset="1" stop-color="#979797"/></linearGradient><linearGradient x1="204.50003" y1="137.01088" x2="204.50003" y2="166.98915" gradientUnits="userSpaceOnUse" id="color-15"><stop offset="0" stop-color="#dddddd"/><stop offset="1" stop-color="#979797"/></linearGradient><linearGradient x1="228.50003" y1="137.01088" x2="228.50003" y2="166.98915" gradientUnits="userSpaceOnUse" id="color-16"><stop offset="0" stop-color="#dddddd"/><stop offset="1" stop-color="#979797"/></linearGradient><linearGradient x1="251.50002" y1="137.01088" x2="251.50002" y2="166.98915" gradientUnits="userSpaceOnUse" id="color-17"><stop offset="0" stop-color="#dddddd"/><stop offset="1" stop-color="#979797"/></linearGradient><linearGradient x1="275.50003" y1="137.01088" x2="275.50003" y2="166.98915" gradientUnits="userSpaceOnUse" id="color-18"><stop offset="0" stop-color="#dddddd"/><stop offset="1" stop-color="#979797"/></linearGradient><linearGradient x1="298.50003" y1="137.01088" x2="298.50003" y2="166.98915" gradientUnits="userSpaceOnUse" id="color-19"><stop offset="0" stop-color="#dddddd"/><stop offset="1" stop-color="#979797"/></linearGradient><linearGradient x1="321.50003" y1="137.01088" x2="321.50003" y2="166.98915" gradientUnits="userSpaceOnUse" id="color-20"><stop offset="0" stop-color="#dddddd"/><stop offset="1" stop-color="#979797"/></linearGradient><linearGradient x1="344.50003" y1="137.01088" x2="344.50003" y2="166.98915" gradientUnits="userSpaceOnUse" id="color-21"><stop offset="0" stop-color="#dddddd"/><stop offset="1" stop-color="#979797"/></linearGradient><linearGradient x1="87.50002" y1="195.98914" x2="87.50002" y2="166.01088" gradientUnits="userSpaceOnUse" id="color-22"><stop offset="0" stop-color="#dddddd"/><stop offset="1" stop-color="#979797"/></linearGradient><linearGradient x1="110.50002" y1="195.98914" x2="110.50002" y2="166.01088" gradientUnits="userSpaceOnUse" id="color-23"><stop offset="0" stop-color="#dddddd"/><stop offset="1" stop-color="#979797"/></linearGradient><linearGradient x1="134.5" y1="195.98914" x2="134.5" y2="166.01088" gradientUnits="userSpaceOnUse" id="color-24"><stop offset="0" stop-color="#dddddd"/><stop offset="1" stop-color="#979797"/></linearGradient></defs><g transform="translate(-75.98527,-137.01088)"><g data-paper-data="{&quot;isPaintingLayer&quot;:true}" fill-rule="nonzero" stroke="#000000" stroke-width="0" stroke-linecap="round" stroke-linejoin="miter" stroke-miterlimit="10" stroke-dasharray="" stroke-dashoffset="0" style="mix-blend-mode: normal"><path d="M169.01475,166.05818l-11.51169,29.93094l-11.5178,-29.97825z" data-paper-data="{&quot;index&quot;:null}" fill="url(#color-1)"/><path d="M192.01475,166.05818l-11.51169,29.93094l-11.5178,-29.97825z" data-paper-data="{&quot;index&quot;:null}" fill="url(#color-2)"/><path d="M216.01476,166.05818l-11.51169,29.93094l-11.5178,-29.97825z" data-paper-data="{&quot;index&quot;:null}" fill="url(#color-3)"/><path d="M240.01476,166.05818l-11.51169,29.93094l-11.5178,-29.97825z" data-paper-data="{&quot;index&quot;:null}" fill="url(#color-4)"/><path d="M263.01476,166.05818l-11.51169,29.93094l-11.5178,-29.97825z" data-paper-data="{&quot;index&quot;:null}" fill="url(#color-5)"/><path d="M287.01476,166.05818l-11.51169,29.93094l-11.5178,-29.97825z" data-paper-data="{&quot;index&quot;:null}" fill="url(#color-6)"/><path d="M310.01476,166.05818l-11.51169,29.93094l-11.5178,-29.97825z" data-paper-data="{&quot;index&quot;:null}" fill="url(#color-7)"/><path d="M333.01476,166.05818l-11.51169,29.93094l-11.5178,-29.97825z" data-paper-data="{&quot;index&quot;:null}" fill="url(#color-8)"/><path d="M356.01477,166.05818l-11.51169,29.93094l-11.5178,-29.97825z" data-paper-data="{&quot;index&quot;:null}" fill="url(#color-9)"/><g><path d="M75.98528,166.98913l11.5178,-29.97825l11.51169,29.93094z" data-paper-data="{&quot;index&quot;:null}" fill="url(#color-10)"/><path d="M98.98528,166.98913l11.5178,-29.97825l11.51169,29.93094z" data-paper-data="{&quot;index&quot;:null}" fill="url(#color-11)"/><path d="M122.98528,166.98913l11.5178,-29.97825l11.51169,29.93094z" data-paper-data="{&quot;index&quot;:null}" fill="url(#color-12)"/><path d="M145.98528,166.98913l11.5178,-29.97825l11.51169,29.93094z" data-paper-data="{&quot;index&quot;:null}" fill="url(#color-13)"/><path d="M168.98528,166.98913l11.5178,-29.97825l11.51169,29.93094z" data-paper-data="{&quot;index&quot;:null}" fill="url(#color-14)"/><path d="M192.98528,166.98913l11.5178,-29.97825l11.51169,29.93094z" data-paper-data="{&quot;index&quot;:null}" fill="url(#color-15)"/><path d="M216.98528,166.98913l11.5178,-29.97825l11.51169,29.93094z" data-paper-data="{&quot;index&quot;:null}" fill="url(#color-16)"/><path d="M239.98528,166.98913l11.5178,-29.97825l11.51169,29.93094z" data-paper-data="{&quot;index&quot;:null}" fill="url(#color-17)"/><path d="M263.98528,166.98913l11.5178,-29.97825l11.51169,29.93094z" data-paper-data="{&quot;index&quot;:null}" fill="url(#color-18)"/><path d="M286.98528,166.98913l11.5178,-29.97825l11.51169,29.93094z" data-paper-data="{&quot;index&quot;:null}" fill="url(#color-19)"/><path d="M309.98528,166.98913l11.5178,-29.97825l11.51169,29.93094z" data-paper-data="{&quot;index&quot;:null}" fill="url(#color-20)"/><path d="M332.98528,166.98913l11.5178,-29.97825l11.51169,29.93094z" data-paper-data="{&quot;index&quot;:null}" fill="url(#color-21)"/></g><g><path d="M99.01477,166.05819l-11.51169,29.93094l-11.5178,-29.97825z" data-paper-data="{&quot;index&quot;:null}" fill="url(#color-22)"/><path d="M122.01477,166.05819l-11.51169,29.93094l-11.5178,-29.97825z" data-paper-data="{&quot;index&quot;:null}" fill="url(#color-23)"/><path d="M146.01475,166.05819l-11.51169,29.93094l-11.5178,-29.97825z" data-paper-data="{&quot;index&quot;:null}" fill="url(#color-24)"/></g></g></g></svg>