<svg version="1.1" xmlns="http://www.w3.org/2000/svg" xmlns:xlink="http://www.w3.org/1999/xlink" width="56.2442" height="79.40768" viewBox="0,0,56.2442,79.40768"><defs><linearGradient x1="240.08016" y1="199.04973" x2="240.08016" y2="207.76199" gradientUnits="userSpaceOnUse" id="color-1"><stop offset="0" stop-color="#008fff"/><stop offset="1" stop-color="#008fff" stop-opacity="0"/></linearGradient><linearGradient x1="224.72144" y1="180" x2="255.2786" y2="180" gradientUnits="userSpaceOnUse" id="color-2"><stop offset="0" stop-color="#6d6e71"/><stop offset="1" stop-color="#414042"/></linearGradient><linearGradient x1="239.99998" y1="168.22441" x2="239.99998" y2="191.77588" gradientUnits="userSpaceOnUse" id="color-3"><stop offset="0" stop-color="#58595b"/><stop offset="1" stop-color="#000000"/></linearGradient></defs><g transform="translate(-211.87789,-161.61175)"><g data-paper-data="{&quot;isPaintingLayer&quot;:true}" fill-rule="nonzero" stroke-linejoin="miter" stroke-miterlimit="10" stroke-dasharray="" stroke-dashoffset="0" style="mix-blend-mode: normal"><path d="M261.67107,199.0815l-21.78788,41.93793l-21.39394,-41.9697z" fill="url(#color-1)" stroke="#000000" stroke-width="0" stroke-linecap="round"/><path d="M214.29263,196.1399c0,0 -1.16474,-0.9316 -1.16474,-3.82699c0,-7.36365 0,-20.97181 0,-24.95861c0,-2.15722 1.16474,-3.16142 1.16474,-3.16142c0,0 0.93582,-1.33113 3.16142,-1.33113c6.09688,0 34.77581,0 45.42467,0c2.48932,0 3.16142,1.16474 3.16142,1.16474c0,0 0.83195,1.88179 0.83195,4.49255c0,4.29395 0,17.61141 0,24.45944c0,2.51681 -0.99834,2.82864 -0.99834,2.82864c0,0 -1.10221,1.33113 -3.32781,1.33113c-5.97399,0 -33.62887,0 -44.75911,0c-2.88433,0 -3.49421,-0.99834 -3.49421,-0.99834z" fill="#d1d1d1" stroke="#002499" stroke-width="2.5" stroke-linecap="butt"/><path d="M254.20542,173.76243l-17.59103,17.68738c-0.69765,0.70169 -1.62677,1.08799 -2.61666,1.08799c0,0 0,0 -0.00025,0c-0.61862,0 -1.23133,-0.15578 -1.77189,-0.45112c-0.04958,-0.02615 -0.10446,-0.05947 -0.15934,-0.09275l-0.0351,-0.02135c-0.02742,-0.01626 -0.05488,-0.03328 -0.08179,-0.05111c-0.23002,-0.14916 -0.44781,-0.32756 -0.63768,-0.52405l-5.55482,-5.75101c-1.4153,-1.46538 -1.37463,-3.80908 0.09101,-5.22493c0.69226,-0.66866 1.60363,-1.03693 2.56607,-1.03693c1.01176,0 1.95539,0.40082 2.65835,1.12815l2.95492,3.05913l14.93884,-15.02012c0.69863,-0.7027 1.62931,-1.08952 2.62023,-1.08952c0.98277,0 1.9081,0.38147 2.60469,1.07479c1.44454,1.43665 1.45091,3.78115 0.01447,5.22543z" fill="url(#color-2)" stroke="none" stroke-width="0.59874" stroke-linecap="butt"/><path d="M253.66436,173.22518l-17.59103,17.68738c-0.94113,0.94643 -2.36712,1.11414 -3.48279,0.5052c-0.04881,-0.02615 -0.09584,-0.05565 -0.1436,-0.08434c-0.02466,-0.01554 -0.04932,-0.0295 -0.07348,-0.04525c-0.18244,-0.11868 -0.35579,-0.25744 -0.5136,-0.42086l-5.55457,-5.7505c-1.12509,-1.16499 -1.09309,-3.02152 0.07216,-4.14687c1.16452,-1.12484 3.02076,-1.09258 4.1461,0.07241l3.49578,3.61874l15.4875,-15.57188c1.14211,-1.14848 2.99864,-1.15357 4.14636,-0.01167c1.14873,1.14237 1.15357,2.9989 0.01116,4.14763z" fill="url(#color-3)" stroke="none" stroke-width="0.59874" stroke-linecap="butt"/></g></g></svg>