<svg version="1.1" xmlns="http://www.w3.org/2000/svg" xmlns:xlink="http://www.w3.org/1999/xlink" width="560.6947" height="259.42647" viewBox="0,0,560.6947,259.42647"><g transform="translate(-35.74531,-86.24042)"><g data-paper-data="{&quot;isPaintingLayer&quot;:true}" fill="none" fill-rule="nonzero" stroke-linejoin="miter" stroke-miterlimit="10" stroke-dasharray="" stroke-dashoffset="0" style="mix-blend-mode: normal"><path d="M145.66107,196.95131l57.38893,77.94615" stroke="#0c255a" stroke-width="8.5" stroke-linecap="round"/><path d="M39.99531,194.56138c0,-57.47681 46.59416,-104.07096 104.07096,-104.07096c57.47681,0 104.07096,46.59416 104.07096,104.07096c0,57.47681 -46.59416,104.07096 -104.07096,104.07096c-57.47681,0 -104.07096,-46.59416 -104.07096,-104.07096z" stroke="#003bb9" stroke-width="8.5" stroke-linecap="butt"/><path d="M312.4634,340.98644l37.68825,-102.78614" data-paper-data="{&quot;index&quot;:null}" stroke="#346ce6" stroke-width="3.5" stroke-linecap="round"/><path d="M354.09251,233.15265v108.26424h-44.41378v-107.63282z" stroke="#0035a7" stroke-width="8.5" stroke-linecap="butt"/><path d="M407.54581,315.70289c0,0 -1.0531,-0.43796 -1.0531,-3.5163c0,-3.82902 0,-8.64882 0,-11c0,-2.65745 1.40414,-5.4837 1.40414,-5.4837c0,0 0.29063,-1 2.63276,-1c14.12697,0 149.71711,0 176.92143,0c3.05122,0 4.0369,2 4.0369,2c0,0 0.70207,1.47953 0.70207,3.9837c0,2.00044 0,5.92411 0,9.5c0,3.97278 -0.70207,5.5163 -0.70207,5.5163c0,0 -0.98569,2 -4.0369,2c-27.20433,0 -162.79447,0 -176.92143,0c-2.34212,0 -2.98379,-2 -2.98379,-2z" stroke="#0051ff" stroke-width="8.5" stroke-linecap="butt"/></g></g></svg>