<svg version="1.1" xmlns="http://www.w3.org/2000/svg" xmlns:xlink="http://www.w3.org/1999/xlink" width="56.2442" height="79.40769" viewBox="0,0,56.2442,79.40769"><defs><linearGradient x1="240.08016" y1="199.04974" x2="240.08016" y2="207.76199" gradientUnits="userSpaceOnUse" id="color-1"><stop offset="0" stop-color="#008fff"/><stop offset="1" stop-color="#008fff" stop-opacity="0"/></linearGradient></defs><g transform="translate(-211.8779,-161.61175)"><g data-paper-data="{&quot;isPaintingLayer&quot;:true}" fill-rule="nonzero" stroke-linejoin="miter" stroke-miterlimit="10" stroke-dasharray="" stroke-dashoffset="0" style="mix-blend-mode: normal"><path d="M261.67106,199.08151l-21.78787,41.93793l-21.39394,-41.9697z" fill="url(#color-1)" stroke="#000000" stroke-width="0" stroke-linecap="round"/><path d="M214.29264,196.1399c0,0 -1.16474,-0.9316 -1.16474,-3.82699c0,-7.36365 0,-20.97181 0,-24.95861c0,-2.15722 1.16474,-3.16142 1.16474,-3.16142c0,0 0.93582,-1.33113 3.16142,-1.33113c6.09688,0 34.77581,0 45.42467,0c2.48932,0 3.16142,1.16474 3.16142,1.16474c0,0 0.83195,1.88179 0.83195,4.49255c0,4.29395 0,17.61141 0,24.45944c0,2.51681 -0.99834,2.82864 -0.99834,2.82864c0,0 -1.10221,1.33113 -3.32781,1.33113c-5.97399,0 -33.62887,0 -44.75911,0c-2.88433,0 -3.49421,-0.99834 -3.49421,-0.99834z" fill="#d1d1d1" stroke="#0026be" stroke-width="2.5" stroke-linecap="butt"/><path d="M255.22671,173.31398l-18.85571,18.95899c-0.74781,0.75214 -1.74373,1.16621 -2.80478,1.16621c0,0 0,0 -0.00028,0c-0.6631,0 -1.31986,-0.16697 -1.89928,-0.48355c-0.05315,-0.02803 -0.11197,-0.06375 -0.1708,-0.09941l-0.03762,-0.02288c-0.02939,-0.01743 -0.05883,-0.03567 -0.08768,-0.05478c-0.24656,-0.15988 -0.48001,-0.35111 -0.68352,-0.56173l-5.95417,-6.16447c-1.51705,-1.57073 -1.47346,-4.08293 0.09755,-5.60056c0.74203,-0.71673 1.71893,-1.11148 2.75055,-1.11148c1.08449,0 2.09597,0.42964 2.84947,1.20925l3.16736,3.27906l16.01284,-16.09998c0.74885,-0.75322 1.74645,-1.16785 2.80861,-1.16785c1.05342,0 2.04529,0.40889 2.79196,1.15206c1.54839,1.53994 1.55522,4.05299 0.01551,5.60111z" fill="#284a00" stroke="none" stroke-width="0.59874" stroke-linecap="butt"/><path d="M254.64673,172.73812l-18.85571,18.95899c-1.00879,1.01447 -2.5373,1.19424 -3.73318,0.54152c-0.05233,-0.02803 -0.10273,-0.05965 -0.15392,-0.0904c-0.02644,-0.01665 -0.05287,-0.03162 -0.07875,-0.0485c-0.19555,-0.12722 -0.38136,-0.27594 -0.55053,-0.45112l-5.95391,-6.16392c-1.20598,-1.24875 -1.17168,-3.23875 0.07735,-4.445c1.24825,-1.2057 3.23793,-1.17112 4.44418,0.07762l3.7471,3.87891l16.60096,-16.69141c1.22422,-1.23105 3.21423,-1.23651 4.44445,-0.01251c1.23132,1.22449 1.23651,3.2145 0.01196,4.44582z" fill="#3cf300" stroke="none" stroke-width="0.59874" stroke-linecap="butt"/></g></g></svg>