<svg version="1.1" xmlns="http://www.w3.org/2000/svg" xmlns:xlink="http://www.w3.org/1999/xlink" width="399.00001" height="193.41174" viewBox="0,0,399.00001,193.41174"><g transform="translate(-25.16292,-119.32523)"><g data-paper-data="{&quot;isPaintingLayer&quot;:true}" fill="none" fill-rule="nonzero" stroke-width="8.5" stroke-linecap="butt" stroke-linejoin="miter" stroke-miterlimit="10" stroke-dasharray="" stroke-dashoffset="0" style="mix-blend-mode: normal"><path d="M30.27777,304.8363c0,0 -0.86484,-0.57125 -0.86484,-4.58648c0,-4.99437 0,-11.28107 0,-14.34783c0,-3.46624 1.15312,-7.15265 1.15312,-7.15265c0,0 0.23868,-1.30435 2.1621,-1.30435c11.60147,0 122.95203,0 145.29301,0c2.50575,0 3.31522,2.6087 3.31522,2.6087c0,0 0.57656,1.92982 0.57656,5.19613c0,2.60927 0,7.7271 0,12.3913c0,5.18189 -0.57656,7.19517 -0.57656,7.19517c0,0 -0.80947,2.6087 -3.31522,2.6087c-22.34098,0 -133.69153,0 -145.29301,0c-1.92342,0 -2.45038,-2.6087 -2.45038,-2.6087z" stroke="#0036aa"/><path d="M268.27777,214.8363c0,0 -0.86484,-0.57125 -0.86484,-4.58648c0,-4.99437 0,-11.28107 0,-14.34783c0,-3.46624 1.15312,-7.15265 1.15312,-7.15265c0,0 0.23868,-1.30435 2.1621,-1.30435c4.95659,0 59.77185,0 59.77185,0l-0.5,-60.5c0,0 10.92608,-3.24499 16.49048,-3.36975c5.70289,-0.12787 17.32157,2.61161 17.32157,2.61161l0.68795,61.25814c0,0 43.76905,0 51.52116,0c2.50575,0 3.31522,2.6087 3.31522,2.6087c0,0 0.57656,1.92982 0.57656,5.19613c0,2.60927 0,7.7271 0,12.3913c0,5.18189 -0.57656,7.19517 -0.57656,7.19517c0,0 -0.80947,2.6087 -3.31522,2.6087c-8.47189,0 -52.52116,1 -52.52116,1l0.52084,54.69423c0,0 -12.58094,3.83154 -18.53278,3.75185c-5.53217,-0.07407 -16.0114,-4.21439 -16.0114,-4.21439l-0.47666,-54.73169c0,0 -53.19166,-0.5 -58.27185,-0.5c-1.92342,0 -2.45038,-2.6087 -2.45038,-2.6087z" stroke="#1f55c9"/></g></g></svg>