<svg version="1.1" xmlns="http://www.w3.org/2000/svg" xmlns:xlink="http://www.w3.org/1999/xlink" width="85.97612" height="192.5112" viewBox="0,0,85.97612,192.5112"><defs><linearGradient x1="240.08016" y1="199.04974" x2="240.08016" y2="207.76199" gradientUnits="userSpaceOnUse" id="color-1"><stop offset="0" stop-color="#008fff"/><stop offset="1" stop-color="#008fff" stop-opacity="0"/></linearGradient></defs><g transform="translate(-194.25777,-48.50824)"><g data-paper-data="{&quot;isPaintingLayer&quot;:true}" fill-rule="nonzero" stroke-linejoin="miter" stroke-miterlimit="10" stroke-dasharray="" stroke-dashoffset="0" style="mix-blend-mode: normal"><path d="M261.67106,199.08151l-21.78787,41.93793l-21.39394,-41.9697z" fill="url(#color-1)" stroke="#000000" stroke-width="0" stroke-linecap="round"/><path d="M214.29264,196.1399c0,0 -1.16474,-0.9316 -1.16474,-3.82699c0,-7.36365 0,-20.97181 0,-24.95861c0,-2.15722 1.16474,-3.16142 1.16474,-3.16142c0,0 0.93582,-1.33113 3.16142,-1.33113c6.09688,0 34.77581,0 45.42467,0c2.48932,0 3.16142,1.16474 3.16142,1.16474c0,0 0.83195,1.88179 0.83195,4.49255c0,4.29395 0,17.61141 0,24.45944c0,2.51681 -0.99834,2.82864 -0.99834,2.82864c0,0 -1.10221,1.33113 -3.32781,1.33113c-5.97399,0 -33.62887,0 -44.75911,0c-2.88433,0 -3.49421,-0.99834 -3.49421,-0.99834z" fill="#d1d1d1" stroke="#003dff" stroke-width="2.5" stroke-linecap="butt"/><path d="M228,177.3c0,0 2.9,-5.2 7,-6.7c0,0 7.9,-1.8 10.5,-0.7c0,0 5.2,3.6 6.5,5.6c0,0 -7,13 -10.3,15c0,0.1 -12.4,-7.8 -13.7,-13.2z" fill="#7fccef" stroke="none" stroke-width="1" stroke-linecap="butt"/><path d="M241.7,190.6l-0.9,-6.9l4.8,-5.8l5.5,-3.4c0.4,0.3 0.7,0.7 0.9,1c0,0 -6.9,13 -10.3,15.1z" fill="#678fe4" stroke="none" stroke-width="1" stroke-linecap="butt"/><path d="M238.8,174.7l6.8,3.2c-0.2,3.2 -3.9,12.7 -3.9,12.7c-2.9,-3 -5.4,-11.7 -5.4,-11.7z" fill="#73b5e4" stroke="none" stroke-width="1" stroke-linecap="butt"/><path d="M252,175.5c-2.5,1.4 -4,1.7 -6.4,2.4c-3.6,1.1 -9.3,1 -9.3,1c-1.8,0 -8.3,-1.6 -8.3,-1.6c0,0 3,-5.1 7,-6.7c0,0 7.8,-1.8 10.5,-0.7c0,0 5.2,3.6 6.5,5.6z" fill="#92d7ef" stroke="none" stroke-width="1" stroke-linecap="butt"/><path d="M243,171.9l2.7,6.1c-3.6,1.1 -9.3,1 -9.3,1l0.4,-6.5l1.2,-2.4c1.3,-0.3 2.8,-0.4 4.2,-0.5z" fill="#7fccef" stroke="none" stroke-width="1" stroke-linecap="butt"/><path d="M244.7,173.8c0.5,0 4.7,0.9 7.1,1.4c0.1,0.1 0.1,0.2 0.2,0.3c-2.5,1.4 -4,1.7 -6.4,2.4c-3.6,1.1 -9.3,1 -9.3,1c-1.8,0 -8.3,-1.6 -8.3,-1.6c0,0 0.1,-0.2 0.3,-0.5c2.9,-0.9 7.1,-2.2 7.9,-2.2c1.2,0 7.8,-0.7 8.5,-0.8z" fill="#83cdef" stroke="none" stroke-width="1" stroke-linecap="butt"/><path d="M235,170.6c0,0 7.8,-1.8 10.6,-0.6c-0.7,1.8 -2.5,2 -2.5,2l-6.3,0.4c-1.2,-0.9 -1.8,-1.8 -1.8,-1.8z" fill="#bee6f1" stroke="none" stroke-width="1" stroke-linecap="butt"/><path d="M252,175.4c-2.5,1.4 -4,1.7 -6.4,2.4l-2.6,-5.9l1.7,-2.2c0.3,0 0.6,0.1 0.8,0.2c0,0 5.2,3.6 6.5,5.5z" fill="#73b5e4" stroke="none" stroke-width="1" stroke-linecap="butt"/><path d="M252,175.5c0,0 -0.1,0.3 -0.3,0.7c-0.2,0.5 -0.5,1.1 -0.8,1.9c-0.2,0.4 -0.4,0.8 -0.6,1.2c-0.2,0.4 -0.5,0.9 -0.8,1.4c-0.5,0.9 -1.2,1.9 -1.8,2.9c-0.7,0.9 -1.4,1.9 -2,2.7c-0.7,0.8 -1.3,1.6 -1.9,2.2c-1.2,1.3 -2,2 -2,2c0,0 0.8,-0.9 1.8,-2.2c0.5,-0.7 1.1,-1.5 1.8,-2.3c0.6,-0.9 1.3,-1.8 2,-2.7c0.7,-0.9 1.3,-1.9 1.8,-2.8c0.6,-0.9 1.1,-1.8 1.5,-2.5c0.4,-0.7 0.8,-1.4 1,-1.8c0.2,-0.4 0.3,-0.7 0.3,-0.7z" fill="#3b73e4" stroke="none" stroke-width="1" stroke-linecap="butt"/><path d="M228,177.3c0,0 0.5,0 1.2,0.1c0.7,0.1 1.6,0.2 2.5,0.4c0.9,0.2 1.8,0.4 2.5,0.6c0.7,0.2 1.1,0.3 1.1,0.3c0,0 -0.5,0.1 -1.2,0c-0.7,-0.1 -1.6,-0.2 -2.5,-0.4c-0.9,-0.2 -1.8,-0.4 -2.5,-0.6c-0.7,-0.2 -1.1,-0.4 -1.1,-0.4z" fill="#bee6f1" stroke="none" stroke-width="1" stroke-linecap="butt"/><path d="M236.5,179.9c0,0 0.3,0.6 0.6,1.4c0.4,0.9 0.8,2 1.3,3.1c0.4,1.1 0.9,2.3 1.2,3.1c0.2,0.4 0.3,0.8 0.5,1c0.2,0.2 0.2,0.3 0.2,0.3c0,0 -0.1,-0.1 -0.3,-0.3c-0.2,-0.2 -0.4,-0.5 -0.7,-0.9c-0.5,-0.8 -1,-1.9 -1.5,-3.1c-0.5,-1.2 -0.8,-2.3 -1.1,-3.2c0,-0.8 -0.2,-1.4 -0.2,-1.4z" fill="#bee6f1" stroke="none" stroke-width="1" stroke-linecap="butt"/><path d="M244.7,173.8c0.5,0 4.7,0.9 7.1,1.4c0.1,0.1 0.1,0.2 0.2,0.3c-2.5,1.4 -4,1.7 -6.4,2.4l-1.7,-4c0.4,0 0.7,0 0.8,-0.1z" fill="#679fe4" stroke="none" stroke-width="1" stroke-linecap="butt"/><path d="M243.9,173.9l1.7,4c-3.6,1.1 -9.3,1 -9.3,1l0.3,-4.3c1.6,-0.1 5.6,-0.5 7.3,-0.7z" fill="#7cbfef" stroke="none" stroke-width="1" stroke-linecap="butt"/><text transform="translate(194.58068,72.72687) scale(0.64583,0.64583)" font-size="40" xml:space="preserve" fill="#ffd013" fill-rule="nonzero" stroke="#ffd013" stroke-width="1" stroke-linecap="butt" stroke-linejoin="miter" stroke-miterlimit="10" stroke-dasharray="" stroke-dashoffset="0" font-family="Handwriting" font-weight="normal" text-anchor="start" style="mix-blend-mode: normal"><tspan x="0" dy="0">You win!</tspan></text></g></g></svg>