<svg version="1.1" xmlns="http://www.w3.org/2000/svg" xmlns:xlink="http://www.w3.org/1999/xlink" width="407.90022" height="490.24541" viewBox="0,0,407.90022,490.24541"><defs><linearGradient x1="390.14892" y1="80.36378" x2="390.14892" y2="154.74288" gradientUnits="userSpaceOnUse" id="color-1"><stop offset="0" stop-color="#0085ff"/><stop offset="1" stop-color="#0085ff" stop-opacity="0"/></linearGradient></defs><g transform="translate(-99.02749,103.0827)"><g data-paper-data="{&quot;isPaintingLayer&quot;:true}" fill-rule="nonzero" stroke-linejoin="miter" stroke-miterlimit="10" stroke-dasharray="" stroke-dashoffset="0" style="mix-blend-mode: normal"><path d="M367.42156,147.83756l-13.48205,-26.68827l7.48014,-28.97998l24.93804,-11.80553l27.04735,9.66699l12.95329,27.36257l-9.39339,26.28185l-23.37941,11.06769z" fill="url(#color-1)" stroke="#1f55c9" stroke-width="8.5" stroke-linecap="round"/><path d="M474.27704,166c0,0 1.31005,0.43796 1.31005,3.5163c0,3.82902 0,8.64882 0,11c0,2.65745 -1.74671,5.4837 -1.74671,5.4837c0,0 -0.36155,1 -3.2751,1c-17.57363,0 -186.24477,0 -220.08633,0c-3.79564,0 -5.02181,-2 -5.02181,-2c0,0 -0.87337,-1.47953 -0.87337,-3.9837c0,-2.00044 0,-5.92411 0,-9.5c0,-3.97278 0.87337,-5.5163 0.87337,-5.5163c0,0 1.22616,-2 5.02181,-2c33.84157,0 202.5127,0 220.08633,0c2.91355,0 3.71178,2 3.71178,2z" data-paper-data="{&quot;index&quot;:null}" fill="none" stroke="#2b65e4" stroke-width="8.5" stroke-linecap="butt"/><path d="M175.5,164.445v72h-72v-72z" data-paper-data="{&quot;index&quot;:null}" fill="none" stroke="#0042cf" stroke-width="8.5" stroke-linecap="butt"/><path d="M189.47186,377.99835v-3.99834v-30.43698h289.02814" data-paper-data="{&quot;index&quot;:null}" fill="none" stroke="#0042cf" stroke-width="8.5" stroke-linecap="round"/><path d="M192.17136,376.04485h47.45861" fill="none" stroke="#0042cf" stroke-width="8.5" stroke-linecap="round"/><path d="M173.27749,381.81163c0,0 -0.43796,0.76289 -3.5163,0.76289c-3.82902,0 -8.64882,0 -11,0c-2.65745,0 -5.4837,-1.01717 -5.4837,-1.01717c0,0 -1,-0.21054 -1,-1.90721c0,-10.23376 0,-108.45702 0,-128.16418c0,-2.21034 2,-2.92438 2,-2.92438c0,0 1.47953,-0.50859 3.9837,-0.50859c2.00044,0 5.92411,0 9.5,0c3.97278,0 5.5163,0.50859 5.5163,0.50859c0,0 2,0.71404 2,2.92438c0,19.70716 0,117.93042 0,128.16418c0,1.69666 -2,2.1615 -2,2.1615z" data-paper-data="{&quot;index&quot;:null}" fill="none" stroke="#0099ff" stroke-width="8.5" stroke-linecap="butt"/><path d="M124.27749,152.81161c0,0 -0.43796,0.76289 -3.5163,0.76289c-3.82902,0 -8.64882,0 -11,0c-2.65745,0 -5.4837,-1.01717 -5.4837,-1.01717c0,0 -1,-0.21054 -1,-1.9072c0,-10.23375 0,-108.45702 0,-128.16417c0,-2.21033 2,-2.92437 2,-2.92437c0,0 1.47953,-0.5086 3.9837,-0.5086c2.00044,0 5.92411,0 9.5,0c3.97278,0 5.5163,0.5086 5.5163,0.5086c0,0 2,0.71404 2,2.92437c0,19.70716 0,117.93042 0,128.16418c0,1.69666 -2,2.1615 -2,2.1615z" data-paper-data="{&quot;index&quot;:null}" fill="none" stroke="#008fff" stroke-width="8.5" stroke-linecap="butt"/><path d="M140.85825,-25.99999l60,-3" fill="none" stroke="#0036aa" stroke-width="8.5" stroke-linecap="round"/><path d="M224.85825,1.00001l-108,6l54,-91z" fill="none" stroke="#1867dd" stroke-width="8.5" stroke-linecap="round"/><g fill="none" stroke="#4879e2"><path d="M402.61574,-97.03071l98.30232,95.23195l-39.06748,40.32705l-97.729,-94.67654z" stroke-width="8.5" stroke-linecap="butt"/><path d="M403.73245,-89.01243l60.17675,124.63364" data-paper-data="{&quot;index&quot;:null}" stroke-width="3.5" stroke-linecap="round"/></g><path d="M106.5,169l64.5,64.5" fill="none" stroke="#002ad3" stroke-width="5" stroke-linecap="round"/><path d="M170.5,169l-63,63" fill="none" stroke="#002ad3" stroke-width="5" stroke-linecap="round"/></g></g></svg>