<svg version="1.1" xmlns="http://www.w3.org/2000/svg" xmlns:xlink="http://www.w3.org/1999/xlink" width="383.5" height="209.94499" viewBox="0,0,383.5,209.94499"><g transform="translate(2.75,2.25)"><g data-paper-data="{&quot;isPaintingLayer&quot;:true}" fill="none" fill-rule="nonzero" stroke-width="8.5" stroke-linejoin="miter" stroke-miterlimit="10" stroke-dasharray="" stroke-dashoffset="0" style="mix-blend-mode: normal"><path d="M6.06604,201.44499c0,0 -1.65313,-0.43796 -1.65313,-3.5163c0,-3.82902 0,-8.64882 0,-11c0,-2.65745 2.20415,-5.4837 2.20415,-5.4837c0,0 0.45623,-1 4.1328,-1c22.17593,0 235.01979,0 277.72401,0c4.78967,0 6.33695,2 6.33695,2c0,0 1.10209,1.47953 1.10209,3.9837c0,2.00044 0,5.92411 0,9.5c0,3.97278 -1.10209,5.5163 -1.10209,5.5163c0,0 -1.54728,2 -6.33695,2c-42.70422,0 -255.54808,0 -277.72401,0c-3.67657,0 -4.68384,-2 -4.68384,-2z" stroke="#0079d8" stroke-linecap="butt"/><path d="M304.5,203v-72h72v72z" stroke="#0023b0" stroke-linecap="butt"/><path d="M354.5,2v120h-29v-119" stroke="#0042cf" stroke-linecap="round"/><path d="M1.5,16h252" stroke="#0042cf" stroke-linecap="round"/></g></g></svg>