<svg version="1.1" xmlns="http://www.w3.org/2000/svg" xmlns:xlink="http://www.w3.org/1999/xlink" width="313.51484" height="31.5" viewBox="0,0,313.51484,31.5"><g transform="translate(-103.86501,-250.49289)"><g data-paper-data="{&quot;isPaintingLayer&quot;:true}" fill="none" fill-rule="nonzero" stroke="#0042cf" stroke-width="8.5" stroke-linecap="butt" stroke-linejoin="miter" stroke-miterlimit="10" stroke-dasharray="" stroke-dashoffset="0" style="mix-blend-mode: normal"><path d="M109.84477,275.74289c0,0 -1.72976,-0.43796 -1.72976,-3.5163c0,-3.82902 0,-8.64882 0,-11c0,-2.65745 2.30635,-5.4837 2.30635,-5.4837c0,0 0.47738,-1 4.32441,-1c23.20408,0 245.91601,0 290.60014,0c5.01173,0 6.63076,2 6.63076,2c0,0 1.15318,1.47953 1.15318,3.9837c0,2.00044 0,5.92411 0,9.5c0,3.97278 -1.15318,5.5163 -1.15318,5.5163c0,0 -1.61902,2 -6.63076,2c-44.68413,0 -267.39607,0 -290.60014,0c-3.84703,0 -4.90099,-2 -4.90099,-2z"/></g></g></svg>