<svg version="1.1" xmlns="http://www.w3.org/2000/svg" xmlns:xlink="http://www.w3.org/1999/xlink" width="203.61936" height="31.5" viewBox="0,0,203.61936,31.5"><g transform="translate(-176.96976,-288.73979)"><g data-paper-data="{&quot;isPaintingLayer&quot;:true}" fill="none" fill-rule="nonzero" stroke="#0042cf" stroke-width="8.5" stroke-linecap="butt" stroke-linejoin="miter" stroke-miterlimit="10" stroke-dasharray="" stroke-dashoffset="0" style="mix-blend-mode: normal"><path d="M182.3263,313.98979c0,0 -1.10653,-0.43796 -1.10653,-3.5163c0,-3.82902 0,-8.64882 0,-11c0,-2.65745 1.47538,-5.4837 1.47538,-5.4837c0,0 0.30538,-1 2.76635,-1c14.84375,0 157.31358,0 185.89822,0c3.20602,0 4.24172,2 4.24172,2c0,0 0.73769,1.47953 0.73769,3.9837c0,2.00044 0,5.92411 0,9.5c0,3.97278 -0.73769,5.5163 -0.73769,5.5163c0,0 -1.0357,2 -4.24172,2c-28.58464,0 -171.05447,0 -185.89822,0c-2.46097,0 -3.13519,-2 -3.13519,-2z"/></g></g></svg>