<svg version="1.1" xmlns="http://www.w3.org/2000/svg" xmlns:xlink="http://www.w3.org/1999/xlink" width="237.70726" height="123.72117" viewBox="0,0,237.70726,123.72117"><g transform="translate(-110.99148,-257.26191)"><g data-paper-data="{&quot;isPaintingLayer&quot;:true}" fill="none" fill-rule="nonzero" stroke-linejoin="miter" stroke-miterlimit="10" stroke-dasharray="" stroke-dashoffset="0" style="mix-blend-mode: normal"><path d="M255.63584,367.15614l6.53124,-8.90046l8.90046,6.53124" stroke="#0051ff" stroke-width="4" stroke-linecap="round"/><path d="M257.44899,261.68006l60.87917,44.67371" stroke="#002575" stroke-width="8.5" stroke-linecap="round"/><path d="M290.16183,341.00539l-102.17732,-74.97869l-5.34028,-3.91875" stroke="#002575" stroke-width="8.5" stroke-linecap="round"/><path d="M240.75969,262.03099l-44.67371,60.87917" stroke="#002575" stroke-width="8.5" stroke-linecap="round"/><path d="M231.35486,350.98171l64.26745,-87.58056" stroke="#002575" stroke-width="8.5" stroke-linecap="round"/><path d="M178.86892,264.26712l-23.77373,32.39769" stroke="#002575" stroke-width="8.5" stroke-linecap="round"/><path d="M116.89805,261.51191c1.71985,-0.027 187.98843,-0.22054 227.5507,0.48565c4.72529,0.08435 4.10649,2.24282 4.10649,2.24282c0,0 1.58925,0.19683 -1.27205,4.14096c-16.59563,22.87619 -73.18247,100.87561 -75.37521,103.86377c-2.85614,3.89221 -4.54645,4.97836 -4.54645,4.97836c0,0 -2.253,1.36128 -4.77637,-0.49039c-22.49804,-16.50928 -146.31444,-107.36692 -146.31444,-107.36692l-1.02975,-3.7702c0,0 -0.06277,-4.05705 1.65707,-4.08405z" stroke="#2962dd" stroke-width="8.5" stroke-linecap="butt"/></g></g></svg>