<svg version="1.1" xmlns="http://www.w3.org/2000/svg" xmlns:xlink="http://www.w3.org/1999/xlink" width="204.47941" height="257.62469" viewBox="0,0,204.47941,257.62469"><g transform="translate(0.26258,-22.91327)"><g data-paper-data="{&quot;isPaintingLayer&quot;:true}" fill="none" fill-rule="nonzero" stroke-width="8.5" stroke-linecap="butt" stroke-linejoin="miter" stroke-miterlimit="10" stroke-dasharray="" stroke-dashoffset="0" style="mix-blend-mode: normal"><path d="M3.89866,166.44916c0,0 -0.21072,-1.01483 2.61973,-3.86274c3.52068,-3.54239 7.95236,-8.00141 10.11421,-10.17659c2.44345,-2.45853 5.86,-4.26034 5.86,-4.26034c0,0 1.08877,-0.75689 2.453,0.59898c3.5156,3.49405 42.39482,42.13494 42.39482,42.13494l42.29359,-43.26375c0,0 10.03711,5.40052 14.07176,9.23454c4.13507,3.92944 10.4448,14.06284 10.4448,14.06284l-42.69472,43.93397c0,0 31.0444,30.85409 36.54279,36.31878c1.77727,1.76638 0.51246,4.18729 0.51246,4.18729c0,0 -0.95145,1.77521 -3.25396,4.09193c-1.83935,1.8507 -5.44706,5.48066 -8.73499,8.78887c-3.65287,3.6754 -5.48103,4.69694 -5.48103,4.69694c0,0 -2.41309,1.27967 -4.19036,-0.4867c-6.00892,-5.97208 -37.957,-36.31444 -37.957,-36.31444l-38.18615,39.16054c0,0 -11.62434,-6.15105 -15.78967,-10.4032c-3.87163,-3.95233 -8.38568,-14.27608 -8.38568,-14.27608l38.2439,-39.15596c0,0 -37.37518,-37.85101 -40.97844,-41.43218c-1.36424,-1.35588 0.10095,-3.57764 0.10095,-3.57764z" stroke="#1f55c9"/><g><path d="M85.21751,143.72591c0,0 -1.02892,0.12492 -3.62958,-2.93426c-3.23485,-3.80519 -7.30674,-8.595 -9.29308,-10.93155c-2.24508,-2.64091 -3.75421,-6.19645 -3.75421,-6.19645c0,0 -0.66298,-1.14837 0.80247,-2.39417c8.83911,-7.51427 93.67665,-79.63596 110.69815,-94.1062c1.90912,-1.62297 4.21551,-0.15971 4.21551,-0.15971c0,0 1.68922,1.09688 3.80481,3.58547c1.69002,1.98799 5.00484,5.88725 8.02584,9.44088c3.35631,3.94806 4.22103,5.85541 4.22103,5.85541c0,0 1.07292,2.51185 -0.8362,4.13482c-17.0215,14.47024 -101.85903,86.59193 -110.69815,94.1062c-1.46545,1.2458 -3.55659,-0.40045 -3.55659,-0.40045z" stroke="#0036aa"/><path d="M86.28695,55.0931c-6.43886,-7.5741 -5.51857,-18.93386 2.05554,-25.37272c7.5741,-6.43886 18.93386,-5.51857 25.37272,2.05554c6.43886,7.5741 5.51857,18.93386 -2.05554,25.37272c-7.5741,6.43886 -18.93386,5.51857 -25.37272,-2.05554z" stroke="#0036aa"/><path d="M159.17187,136.19666c-6.43886,-7.5741 -5.51857,-18.93386 2.05554,-25.37272c7.5741,-6.43886 18.93386,-5.51857 25.37272,2.05554c6.43886,7.5741 5.51857,18.93386 -2.05554,25.37272c-7.5741,6.43886 -18.93386,5.51857 -25.37272,-2.05554z" stroke="#0036aa"/></g></g></g></svg>