<svg version="1.1" xmlns="http://www.w3.org/2000/svg" xmlns:xlink="http://www.w3.org/1999/xlink" width="392.89689" height="129.7307" viewBox="0,0,392.89689,129.7307"><defs><linearGradient x1="167.82546" y1="171.52249" x2="268.17227" y2="171.52249" gradientUnits="userSpaceOnUse" id="color-1"><stop offset="0" stop-color="#6685ff" stop-opacity="0"/><stop offset="1" stop-color="#6685ff"/></linearGradient></defs><g transform="translate(-45.09269,-113.50808)"><g data-paper-data="{&quot;isPaintingLayer&quot;:true}" fill-rule="nonzero" stroke-linejoin="miter" stroke-miterlimit="10" stroke-dasharray="" stroke-dashoffset="0" style="mix-blend-mode: normal"><path d="M229.76525,211.14814l-33.92512,-49.57909" fill="none" stroke="#0036aa" stroke-width="8.5" stroke-linecap="round"/><path d="M167.82546,220.55361l39.75924,-98.06224l60.58757,89.6055z" fill="url(#color-1)" stroke="#1f55c9" stroke-width="8.5" stroke-linecap="round"/><g fill="none" stroke="#4879e2"><g><path d="M432.84399,173.39868l-133.46268,30.33451l-12.44427,-54.75106l132.6843,-30.15759z" stroke-width="8.5" stroke-linecap="butt"/><path d="M288.24791,152.29431l137.26941,17.66057" data-paper-data="{&quot;index&quot;:null}" stroke-width="3.5" stroke-linecap="round"/></g><path d="M301.04606,200.51603l116,-77" stroke-width="2.5" stroke-linecap="round"/></g><g fill="none" stroke-width="8.5"><path d="M66.46138,148.70978l33.84031,37.21766" stroke="#0c255a" stroke-linecap="round"/><path d="M153.16546,171.90228c8.38099,28.66987 -8.06639,58.70552 -36.73626,67.08651c-28.66987,8.38099 -58.70552,-8.06639 -67.08651,-36.73626c-8.38099,-28.66987 8.06639,-58.70552 36.73626,-67.08651c28.66987,-8.38099 58.70552,8.06639 67.08651,36.73626z" stroke="#003bb9" stroke-linecap="butt"/></g></g></g></svg>