<svg version="1.1" xmlns="http://www.w3.org/2000/svg" xmlns:xlink="http://www.w3.org/1999/xlink" width="302.28126" height="353.44209" viewBox="0,0,302.28126,353.44209"><g transform="translate(-60.79652,39.74708)"><g data-paper-data="{&quot;isPaintingLayer&quot;:true}" fill-rule="nonzero" stroke-linejoin="miter" stroke-miterlimit="10" stroke-dasharray="" stroke-dashoffset="0" style="mix-blend-mode: normal"><path d="M239.62436,305.83518v-11.03972h11.03972" fill="none" stroke="#0051ff" stroke-width="4" stroke-linecap="round"/><path d="M178.68511,219.72537h75.51168" fill="none" stroke="#002575" stroke-width="8.5" stroke-linecap="round"/><path d="M251.98884,264.32584h-126.73598h-6.62383" fill="none" stroke="#002575" stroke-width="8.5" stroke-linecap="round"/><path d="M165.43745,229.88191v75.51168" fill="none" stroke="#002575" stroke-width="8.5" stroke-linecap="round"/><path d="M210.4795,307.15995v-108.63084" fill="none" stroke="#002575" stroke-width="8.5" stroke-linecap="round"/><path d="M116.86268,308.48471v-40.18458" fill="none" stroke="#002575" stroke-width="8.5" stroke-linecap="round"/><path d="M66.35064,307.01461c0,0 -1.08025,-0.53221 -1.08025,-4.273c0,-4.15656 151.42991,-111.39425 183.74367,-134.23047c3.85953,-2.72754 4.29735,0.04191 4.29735,0.04191c0,0 1.73801,-1.44468 1.76457,3.42794c0.1541,28.26148 0.67804,124.62384 0.67804,128.33022c0,4.82771 -0.72018,6.7034 -0.72018,6.7034c0,0 -1.01107,2.4304 -4.14093,2.4304c-27.90552,0 -166.99051,0 -181.4816,0c-2.40251,0 -3.06071,-2.4304 -3.06071,-2.4304z" fill="none" stroke="#003bb9" stroke-width="8.5" stroke-linecap="butt"/><path d="M294.93399,264.12624l-0.75116,-299.02325l63.88319,-0.56257l0.75116,299.02325z" fill="none" stroke="#143e9b" stroke-width="8.5" stroke-linecap="butt"/><text transform="translate(303.5,223) scale(0.5,0.5)" font-size="40" xml:space="preserve" fill="#ffffff" fill-rule="nonzero" stroke="none" stroke-width="1" stroke-linecap="butt" stroke-linejoin="miter" stroke-miterlimit="10" stroke-dasharray="" stroke-dashoffset="0" font-family="Handwriting" font-weight="normal" text-anchor="start" style="mix-blend-mode: normal"><tspan x="0" dy="0">1</tspan></text><text transform="translate(301.16667,173.33333) scale(0.5,0.5)" font-size="40" xml:space="preserve" fill="#ffffff" fill-rule="nonzero" stroke="none" stroke-width="1" stroke-linecap="butt" stroke-linejoin="miter" stroke-miterlimit="10" stroke-dasharray="" stroke-dashoffset="0" font-family="Handwriting" font-weight="normal" text-anchor="start" style="mix-blend-mode: normal"><tspan x="0" dy="0">2</tspan></text><text transform="translate(299.5,257.33333) scale(0.5,0.5)" font-size="40" xml:space="preserve" fill="#ffffff" fill-rule="nonzero" stroke="none" stroke-width="1" stroke-linecap="butt" stroke-linejoin="miter" stroke-miterlimit="10" stroke-dasharray="" stroke-dashoffset="0" font-family="Handwriting" font-weight="normal" text-anchor="start" style="mix-blend-mode: normal"><tspan x="0" dy="0">0</tspan></text><text transform="translate(301.5,129.66667) scale(0.5,0.5)" font-size="40" xml:space="preserve" fill="#ffffff" fill-rule="nonzero" stroke="none" stroke-width="1" stroke-linecap="butt" stroke-linejoin="miter" stroke-miterlimit="10" stroke-dasharray="" stroke-dashoffset="0" font-family="Handwriting" font-weight="normal" text-anchor="start" style="mix-blend-mode: normal"><tspan x="0" dy="0">3</tspan></text><text transform="translate(300.5,89.66667) scale(0.5,0.5)" font-size="40" xml:space="preserve" fill="#ffffff" fill-rule="nonzero" stroke="none" stroke-width="1" stroke-linecap="butt" stroke-linejoin="miter" stroke-miterlimit="10" stroke-dasharray="" stroke-dashoffset="0" font-family="Handwriting" font-weight="normal" text-anchor="start" style="mix-blend-mode: normal"><tspan x="0" dy="0">4</tspan></text><text transform="translate(299.5,41.66667) scale(0.5,0.5)" font-size="40" xml:space="preserve" fill="#ffffff" fill-rule="nonzero" stroke="none" stroke-width="1" stroke-linecap="butt" stroke-linejoin="miter" stroke-miterlimit="10" stroke-dasharray="" stroke-dashoffset="0" font-family="Handwriting" font-weight="normal" text-anchor="start" style="mix-blend-mode: normal"><tspan x="0" dy="0">5</tspan></text><path d="M353.25,36.54042h-33.5h-3.5" fill="none" stroke="#143e9b" stroke-width="5" stroke-linecap="round"/><path d="M316.75,82.54042h38.5" fill="none" stroke="#143e9b" stroke-width="5" stroke-linecap="round"/><path d="M315.75,127.04042h39" fill="none" stroke="#143e9b" stroke-width="5" stroke-linecap="round"/><path d="M356.25,170.54042h-39.5" fill="none" stroke="#143e9b" stroke-width="5" stroke-linecap="round"/><path d="M314.25,215.04042h40.5" fill="none" stroke="#143e9b" stroke-width="5" stroke-linecap="round"/><text transform="translate(298.5,-0.33333) scale(0.5,0.5)" font-size="40" xml:space="preserve" fill="#ffffff" fill-rule="nonzero" stroke="none" stroke-width="1" stroke-linecap="butt" stroke-linejoin="miter" stroke-miterlimit="10" stroke-dasharray="" stroke-dashoffset="0" font-family="Handwriting" font-weight="normal" text-anchor="start" style="mix-blend-mode: normal"><tspan x="0" dy="0">6</tspan></text><path d="M353.91667,-6.45958h-33.5h-3.5" fill="none" stroke="#143e9b" stroke-width="5" stroke-linecap="round"/></g></g></svg>