<svg version="1.1" xmlns="http://www.w3.org/2000/svg" xmlns:xlink="http://www.w3.org/1999/xlink" width="171.02949" height="208.97825" viewBox="0,0,171.02949,208.97825"><defs><linearGradient x1="276.91283" y1="309.33871" x2="276.91283" y2="339.31697" gradientUnits="userSpaceOnUse" id="color-1"><stop offset="0" stop-color="#dddddd"/><stop offset="1" stop-color="#979797"/></linearGradient><linearGradient x1="298.91283" y1="309.33871" x2="298.91283" y2="339.31697" gradientUnits="userSpaceOnUse" id="color-2"><stop offset="0" stop-color="#dddddd"/><stop offset="1" stop-color="#979797"/></linearGradient><linearGradient x1="387.91283" y1="309.33871" x2="387.91283" y2="339.31697" gradientUnits="userSpaceOnUse" id="color-3"><stop offset="0" stop-color="#dddddd"/><stop offset="1" stop-color="#979797"/></linearGradient><linearGradient x1="409.91283" y1="309.33871" x2="409.91283" y2="339.31697" gradientUnits="userSpaceOnUse" id="color-4"><stop offset="0" stop-color="#dddddd"/><stop offset="1" stop-color="#979797"/></linearGradient><linearGradient x1="351.91282" y1="221.31696" x2="351.91282" y2="191.3387" gradientUnits="userSpaceOnUse" id="color-5"><stop offset="0" stop-color="#dddddd"/><stop offset="1" stop-color="#979797"/></linearGradient><linearGradient x1="329.91282" y1="221.31696" x2="329.91282" y2="191.3387" gradientUnits="userSpaceOnUse" id="color-6"><stop offset="0" stop-color="#dddddd"/><stop offset="1" stop-color="#979797"/></linearGradient><linearGradient x1="261.91283" y1="130.33871" x2="261.91283" y2="160.31697" gradientUnits="userSpaceOnUse" id="color-7"><stop offset="0" stop-color="#dddddd"/><stop offset="1" stop-color="#979797"/></linearGradient></defs><g transform="translate(-250.39808,-130.33871)"><g data-paper-data="{&quot;isPaintingLayer&quot;:true}" fill-rule="nonzero" stroke="#000000" stroke-width="0" stroke-linecap="round" stroke-linejoin="miter" stroke-miterlimit="10" stroke-dasharray="" stroke-dashoffset="0" style="mix-blend-mode: normal"><g><path d="M265.39808,339.31696l11.5178,-29.97825l11.51169,29.93094z" fill="url(#color-1)"/><path d="M287.39808,339.31696l11.5178,-29.97825l11.51169,29.93094z" fill="url(#color-2)"/></g><g><path d="M376.39808,339.31696l11.5178,-29.97825l11.51169,29.93094z" fill="url(#color-3)"/><path d="M398.39808,339.31696l11.5178,-29.97825l11.51169,29.93094z" fill="url(#color-4)"/></g><g><path d="M363.42757,191.33871l-11.5178,29.97825l-11.51169,-29.93094z" fill="url(#color-5)"/><path d="M341.42757,191.33871l-11.5178,29.97825l-11.51169,-29.93094z" fill="url(#color-6)"/></g><path d="M250.39808,160.31696l11.5178,-29.97825l11.51169,29.93094z" fill="url(#color-7)"/></g></g></svg>