<svg version="1.1" xmlns="http://www.w3.org/2000/svg" xmlns:xlink="http://www.w3.org/1999/xlink" width="345.02064" height="43.45643" viewBox="0,0,345.02064,43.45643"><g transform="translate(-51.14259,-246.18011)"><g data-paper-data="{&quot;isPaintingLayer&quot;:true}" fill="none" fill-rule="nonzero" stroke-width="8.5" stroke-linecap="butt" stroke-linejoin="miter" stroke-miterlimit="10" stroke-dasharray="" stroke-dashoffset="0" style="mix-blend-mode: normal"><path d="M55.67161,272.54795c0,0 -0.23121,-0.43674 -0.24167,-3.51505c-0.013,-3.82899 -0.02938,-8.64874 -0.03737,-10.9999c-0.00902,-2.65742 0.28766,-5.48527 0.28766,-5.48527c0,0 0.06,-1.00032 0.5709,-1.00302c3.08161,-0.01627 32.65877,-0.17242 38.59301,-0.20375c0.66559,-0.00351 0.88738,1.99534 0.88738,1.99534c0,0 0.15818,1.47871 0.16668,3.98286c0.00679,2.00042 0.02013,5.92406 0.03227,9.49991c0.01349,3.97274 -0.13441,5.51706 -0.13441,5.51706c0,0 -0.20822,2.00112 -0.8738,2.00463c-5.93426,0.03133 -35.51141,0.18748 -38.59301,0.20375c-0.5109,0.0027 -0.65768,-1.99655 -0.65768,-1.99655z" stroke="#003bb9"/><path d="M204.69137,272.60275c0,0 -0.2321,-0.43617 -0.24876,-3.51445c-0.02071,-3.82893 -0.04679,-8.64864 -0.0595,-10.99977c-0.01437,-2.6574 0.27665,-5.48596 0.27665,-5.48596c0,0 0.05798,-1.00047 0.56892,-1.00444c3.08174,-0.0239 32.66019,-0.25325 38.5947,-0.29927c0.66562,-0.00516 0.89146,1.99313 0.89146,1.99313c0,0 0.16115,1.47832 0.17471,3.98243c0.01082,2.0004 0.03205,5.92399 0.05139,9.4998c0.02149,3.9727 -0.12332,5.51737 -0.12332,5.51737c0,0 -0.2042,2.00162 -0.86982,2.00678c-5.93451,0.04602 -35.51296,0.27537 -38.5947,0.29927c-0.51093,0.00396 -0.66172,-1.99491 -0.66172,-1.99491z" stroke="#0037ad"/><path d="M350.64557,271.42974c0,0 -0.23519,-0.43809 -0.23398,-3.51643c0.00149,-3.82902 0.00338,-8.64882 0.0043,-11c0.00103,-2.65745 0.31595,-5.48352 0.31595,-5.48352c0,0 0.06534,-0.99996 0.58877,-0.99968c3.15718,0.00175 33.45978,0.01859 39.53957,0.02196c0.68191,0.00038 0.90142,2.0005 0.90142,2.0005c0,0 0.15633,1.47962 0.15535,3.98378c-0.00078,2.00044 -0.00231,5.92411 -0.00371,9.5c-0.00155,3.97278 -0.15906,5.51621 -0.15906,5.51621c0,0 -0.22107,1.99988 -0.90298,1.9995c-6.0798,-0.00337 -36.38238,-0.02021 -39.53957,-0.02196c-0.52343,-0.00029 -0.66606,-2.00037 -0.66606,-2.00037z" stroke="#0033a0"/></g></g></svg>