<svg version="1.1" xmlns="http://www.w3.org/2000/svg" xmlns:xlink="http://www.w3.org/1999/xlink" width="130.60085" height="255.37144" viewBox="0,0,130.60085,255.37144"><defs><linearGradient x1="276.91283" y1="265.33871" x2="276.91283" y2="295.31697" gradientUnits="userSpaceOnUse" id="color-1"><stop offset="0" stop-color="#dddddd"/><stop offset="1" stop-color="#979797"/></linearGradient><linearGradient x1="298.91283" y1="265.33871" x2="298.91283" y2="295.31697" gradientUnits="userSpaceOnUse" id="color-2"><stop offset="0" stop-color="#dddddd"/><stop offset="1" stop-color="#979797"/></linearGradient><linearGradient x1="285.91283" y1="125.33871" x2="285.91283" y2="155.31696" gradientUnits="userSpaceOnUse" id="color-3"><stop offset="0" stop-color="#dddddd"/><stop offset="1" stop-color="#979797"/></linearGradient><linearGradient x1="307.91283" y1="125.33871" x2="307.91283" y2="155.31696" gradientUnits="userSpaceOnUse" id="color-4"><stop offset="0" stop-color="#dddddd"/><stop offset="1" stop-color="#979797"/></linearGradient><linearGradient x1="395.80574" y1="51.1966" x2="365.82865" y2="51.45982" gradientUnits="userSpaceOnUse" id="color-5"><stop offset="0" stop-color="#dddddd"/><stop offset="1" stop-color="#979797"/></linearGradient><linearGradient x1="395.99891" y1="73.19575" x2="366.02182" y2="73.45897" gradientUnits="userSpaceOnUse" id="color-6"><stop offset="0" stop-color="#dddddd"/><stop offset="1" stop-color="#979797"/></linearGradient></defs><g transform="translate(-265.39808,-39.94552)"><g data-paper-data="{&quot;isPaintingLayer&quot;:true}" fill-rule="nonzero" stroke="#000000" stroke-width="0" stroke-linecap="round" stroke-linejoin="miter" stroke-miterlimit="10" stroke-dasharray="" stroke-dashoffset="0" style="mix-blend-mode: normal"><g><path d="M265.39808,295.31696l11.5178,-29.97825l11.51169,29.93094z" fill="url(#color-1)"/><path d="M287.39808,295.31696l11.5178,-29.97825l11.51169,29.93094z" fill="url(#color-2)"/></g><g><path d="M274.39808,155.31696l11.5178,-29.97825l11.51169,29.93094z" fill="url(#color-3)"/><path d="M296.39808,155.31696l11.5178,-29.97825l11.51169,29.93094z" fill="url(#color-4)"/></g><g><path d="M365.72754,39.94552l30.07822,11.25414l-29.8287,11.77405z" fill="url(#color-5)"/><path d="M365.92071,61.94467l30.07822,11.25414l-29.8287,11.77405z" fill="url(#color-6)"/></g></g></g></svg>