<svg version="1.1" xmlns="http://www.w3.org/2000/svg" xmlns:xlink="http://www.w3.org/1999/xlink" width="188" height="35.72222"><g transform="translate(-145.99999,-85.00006)"><g data-paper-data="{&quot;isPaintingLayer&quot;:true}" fill="none" fill-rule="nonzero" stroke="none" stroke-width="none" stroke-linecap="none" stroke-linejoin="miter" stroke-miterlimit="10" stroke-dasharray="" stroke-dashoffset="0" font-family="none" font-weight="none" font-size="none" text-anchor="none" style="mix-blend-mode: normal"><g fill="#be1722" stroke-width="0" stroke-linecap="butt"><path d="M146,120.72229v-16h188v16z"/><g><path d="M146,109.87785c0,-12.02818 14.96134,-24.87778 28.2,-24.87778c23.79145,0 102.73647,0 140,0c12.09597,0 19.8,8.52696 19.8,17.27778c0,2.90192 0,7.09516 0,12.2769c-3.41479,0.835 -6.77739,2.24658 -10.23107,2.38977c-11.73397,0.4865 -22.53223,-1.53921 -34.10228,-1.33333c-2.3435,0.0417 -4.69337,0.97784 -7.02442,1c-17.39928,0.16544 -32.73109,-0.82033 -50.30891,-0.66667c-3.06656,0.02681 -6.18299,0.96287 -9.28924,1c-6.45868,0.0772 -12.91861,-0.06485 -19.37742,0c-3.25001,0.03263 -6.52301,1.28885 -9.83209,1.33333c-7.63723,0.10267 -15.35937,0.27103 -22.94223,0.27103c-3.44636,0 -7.13302,1.31649 -10.67929,1.39564c-4.47239,0.09982 -9.58765,-0.37226 -14.21305,0.61698c0,-4.28506 0,-7.90424 0,-10.68365z"/><path d="M146,102.27785c0,-8.75082 7.70403,-17.27778 19.8,-17.27778c14.02268,0 33.94788,0 54.61531,0c-0.05402,0.46758 -0.08198,0.95517 -0.08198,1.46296c0,6.59826 4.73397,9.7985 10,10c16.68011,0.63827 32.50767,-1.31758 48.7954,-0.57083c0.78021,0.5668 1.64553,1.02358 2.57316,1.34753c0.31023,0.10834 0.62743,0.20182 0.95074,0.2796c3.09403,1.50271 6.08151,3.76534 9.03713,5.33791c6.6126,3.51829 13.76856,5.96926 20.30025,9.63561c2.82379,1.58504 5.2148,3.06769 7.33069,4.52506c-10.05315,-0.06738 -19.55987,-1.58633 -29.65404,-1.40672c-2.3435,0.0417 -4.69337,0.97784 -7.02442,1c-17.39928,0.16544 -32.73109,-0.82033 -50.30891,-0.66667c-3.06656,0.02681 -6.18299,0.96287 -9.28924,1c-6.45868,0.0772 -12.91861,-0.06485 -19.37742,0c-3.25001,0.03263 -6.52301,1.28885 -9.83209,1.33333c-7.63723,0.10267 -15.35937,0.27103 -22.94223,0.27103c-3.44636,0 -7.13302,1.31649 -10.67929,1.39564c-4.47239,0.09982 -9.58766,-0.37226 -14.21306,0.61698c0,-7.98065 0,-14.33037 0,-18.28364z" data-paper-data="{&quot;index&quot;:null}"/><path d="M157.18699,109.93023c8.43722,-7.97919 16.19744,-15.50701 22.0688,-24.93015h88.54239c7.79985,7.09308 17.1824,13.44838 20.01133,15.89891c5.76277,4.99193 11.36582,10.16384 16.96265,15.34263c-4.98265,-0.37326 -9.96799,-0.72184 -15.1055,-0.63042c-2.3435,0.0417 -4.69337,0.97784 -7.02442,1c-17.39928,0.16544 -32.73109,-0.82033 -50.30891,-0.66667c-3.06656,0.02681 -6.18299,0.96287 -9.28924,1c-6.45868,0.0772 -12.91861,-0.06485 -19.37742,0c-3.25001,0.03263 -6.52301,1.28885 -9.83209,1.33333c-7.63723,0.10267 -15.35937,0.27103 -22.94223,0.27103c-3.44636,0 -7.13302,1.31649 -10.67929,1.39564c-4.33087,0.09666 -9.26459,-0.34296 -13.77255,0.5274c3.97975,-2.96905 7.11607,-7.10836 10.74649,-10.5417z" data-paper-data="{&quot;index&quot;:null}"/><path d="M192.19049,100.89899c2.82893,-2.45053 12.21148,-8.80583 20.01133,-15.89892h88.5424c5.87136,9.42314 13.63159,16.95095 22.0688,24.93015c2.04259,1.93171 3.92877,4.0869 5.89676,6.1314c-1.63649,0.45104 -3.27811,0.81397 -4.94084,0.8829c-11.73397,0.4865 -22.53223,-1.53921 -34.10228,-1.33333c-2.3435,0.0417 -4.69337,0.97784 -7.02442,1c-17.39928,0.16544 -32.73109,-0.82033 -50.30891,-0.66667c-3.06656,0.02681 -6.18299,0.96287 -9.28924,1c-6.45868,0.0772 -12.91861,-0.06485 -19.37742,0c-3.25001,0.03263 -6.52301,1.28885 -9.83209,1.33333c-7.01863,0.09436 -14.10897,0.24419 -21.09702,0.26784c6.42866,-5.94483 12.8355,-11.91442 19.45294,-17.6467z" data-paper-data="{&quot;index&quot;:null}"/></g></g><path d="M159.79082,108.16698h6.79688v3.35938h-10.90625v-13.8125h4.10938zM178.2488,111.52636h-11.09375v-13.8125h11.09375v3.35938h-6.98437v1.78125h5.5v3.35938h-5.5v1.95313h6.98438zM184.87676,106.08886l2.90625,-8.375h4.45313l-5.23437,13.8125h-4.26562l-5.21875,-13.8125h4.45313zM203.34145,111.52636h-11.09375v-13.8125h11.09375v3.35938h-6.98437v1.78125h5.5v3.35938h-5.5v1.95313h6.98438zM208.20382,108.16698h6.79688v3.35938h-10.90625v-13.8125h4.10938zM231.97741,111.30761c-3.01041,0.27084 -5.43229,0.40625 -7.26562,0.40625c-1.32291,0 -2.30729,-0.32291 -2.95312,-0.96875c-0.64584,-0.64584 -0.96875,-1.63021 -0.96875,-2.95312v-5.96875c0,-1.40625 0.32813,-2.44271 0.98438,-3.10937c0.66666,-0.66666 1.70834,-1 3.125,-1h7.07813v3.35938h-6.34375c-0.48959,0 -0.73437,0.25 -0.73437,0.75v5.96875c0,0.1875 0.04688,0.32813 0.14063,0.42188c0.09375,0.09375 0.24479,0.14063 0.45313,0.14063c0.20834,0 0.46354,0 0.76563,0c0.3125,-0.01041 0.63541,-0.02084 0.96875,-0.03125c0.33334,-0.02084 0.67188,-0.03646 1.01563,-0.04687c0.34375,-0.01041 0.78125,-0.03125 1.3125,-0.0625c0.54166,-0.04166 1.34896,-0.09896 2.42188,-0.17187zM241.12243,101.63573c0,-0.5 -0.25,-0.75 -0.75,-0.75h-3.17187c-0.48959,0 -0.73437,0.25 -0.73437,0.75v5.96875c0,0.5 0.24479,0.75 0.73438,0.75h3.17188c0.5,0 0.75,-0.25 0.75,-0.75zM245.2318,107.60448c0,1.41666 -0.33333,2.45834 -1,3.125c-0.66666,0.65625 -1.70312,0.98438 -3.10937,0.98438h-4.65625c-1.41666,0 -2.45834,-0.32812 -3.125,-0.98437c-0.65625,-0.66666 -0.98437,-1.70834 -0.98437,-3.125v-5.96875c0,-1.40625 0.32813,-2.44271 0.98438,-3.10937c0.66666,-0.66666 1.70834,-1 3.125,-1h4.65625c1.40625,0 2.44271,0.33334 3.10938,1c0.66667,0.66666 1,1.70313 1,3.10938zM257.53835,105.30761l-2.01562,3.60938h-3.04687l-2.01562,-3.60937v6.21875h-4.10937v-13.8125h4.14063l3.5,6.48438l3.51563,-6.48437h4.14063v13.8125h-4.10937zM263.1415,97.71386h8.20313c1.40625,0 2.44271,0.33334 3.10938,1c0.66666,0.66666 1,1.70313 1,3.10938v1.85938c0,1.41666 -0.33334,2.45834 -1,3.125c-0.66666,0.65625 -1.70312,0.98438 -3.10937,0.98438h-4.09375v3.73438h-4.10937zM271.34461,101.82323c0,-0.5 -0.25,-0.75 -0.75,-0.75h-3.34375v3.35938h3.34375c0.5,0 0.75,-0.25 0.75,-0.75zM280.49682,108.16698h6.79688v3.35938h-10.90625v-13.8125h4.10938zM298.95479,111.52636h-11.09375v-13.8125h11.09375v3.35938h-6.98437v1.78125h5.5v3.35938h-5.5v1.95313h6.98438zM306.8015,111.52636h-4.10937v-10.45312h-3.92187v-3.35937h11.9375v3.35938h-3.90625zM322.3684,111.52636h-11.09375v-13.8125h11.09375v3.35938h-6.98437v1.78125h5.5v3.35938h-5.5v1.95313h6.98438z" fill="#000000" stroke-width="1" stroke-linecap="square"/></g></g></svg>