<svg version="1.1" xmlns="http://www.w3.org/2000/svg" xmlns:xlink="http://www.w3.org/1999/xlink" width="188" height="41.51309" viewBox="0,0,188,41.51309"><g transform="translate(-145.99999,-198.74736)"><g data-paper-data="{&quot;isPaintingLayer&quot;:true}" fill="#ffffff" fill-rule="nonzero" stroke="none" stroke-width="0" stroke-linecap="butt" stroke-linejoin="miter" stroke-miterlimit="10" stroke-dasharray="" stroke-dashoffset="0" style="mix-blend-mode: normal"><path d="M313.90416,219.88612l-18.64531,7.23549l-4.20911,2.97421l-0.27369,1.82357l-1.40924,1.18926l-0.32541,5.1436l0.14785,0.8043c-6.79607,0.16561 -13.59171,0.35546 -20.3867,0.54132l-0.40634,-0.48042l-1.68683,-0.10485l-1.16063,-1.22854l-5.15375,-0.03681l-9.26892,2.24701l-0.50781,0.26619c-3.70245,-0.62225 -7.37485,-1.22796 -11.00578,-1.80944c-8.92744,-1.4297 -19.10909,-3.69714 -28.437,-4.33347c-21.72353,-1.48193 -43.44898,-2.93566 -65.17549,-4.3733c0,-9.3419 0,-19.51571 0,-29.89909c40.10362,0.26182 80.21054,-0.28152 120.31471,-0.05271c0.70175,0.00401 2.0307,0.24207 3.54624,0.46806c0.86502,0.24402 1.77763,0.37457 2.72071,0.37457c0.15184,0 0.30289,-0.00338 0.45308,-0.01008c1.7421,0.10964 3.34903,0.00005 4.21584,-0.66672c0.004,-0.00307 0.00801,-0.00615 0.012,-0.00923c8.07696,-1.48693 23.48017,1.55893 36.20125,6.12321c-0.03915,2.57715 -0.23496,5.91364 0.00867,8.42774c0.17361,1.79161 0.34409,3.58363 0.51555,5.37558z"/><path d=""/><path d="M313.90416,219.88612l-18.64531,7.23549l-4.20911,2.97421l-0.27369,1.82357l-1.40924,1.18926l-0.32541,5.1436l0.14785,0.8043c-6.79607,0.16561 -13.59171,0.35546 -20.3867,0.54132l-0.40634,-0.48042l-1.68683,-0.10485l-1.16063,-1.22854l-5.15375,-0.03681l-9.26892,2.24701l-0.50781,0.26619c-3.70245,-0.62225 -7.37485,-1.22796 -11.00578,-1.80944c-8.92744,-1.4297 -19.10909,-3.69714 -28.437,-4.33347c-21.72353,-1.48193 -43.44898,-2.93566 -65.1755,-4.3733c0,-9.31591 0,-19.48035 0,-29.89909c40.10362,0.26182 80.21055,-0.28152 120.31472,-0.05271c0.70175,0.00401 2.0307,0.24207 3.54624,0.46806c0.86502,0.24402 1.77763,0.37457 2.72071,0.37457c0.15184,0 0.30289,-0.00338 0.45308,-0.01008c1.7421,0.10964 3.34903,0.00005 4.21584,-0.66672c0.004,-0.00307 0.00801,-0.00615 0.012,-0.00923c8.07699,-1.48694 23.48031,1.55075 36.20143,6.11168c-0.03873,2.57872 -0.2355,5.92142 0.00849,8.43926c0.17361,1.79161 0.34409,3.58363 0.51555,5.37558z" data-paper-data="{&quot;index&quot;:null}"/><path d="" data-paper-data="{&quot;index&quot;:null}"/><path d="M146,229.73075c0,-8.67393 0,-18.91812 0,-29.8856c30.80644,0.20112 123.06555,-0.51503 165.84148,-0.88824c0.13146,1.41048 0.36233,2.81695 0.75857,4.17329c0.09304,0.31849 0.79405,0.23316 0.82026,0.56393c0.19768,2.49413 -0.27754,7.40322 0.05219,10.80586c0.17361,1.79161 0.34409,3.58363 0.51555,5.37558l-0.08389,0.01056l-18.64531,7.23549l-4.20911,2.97421l-0.27369,1.82357l-1.40924,1.18926l-0.32541,5.1436l0.14785,0.80429c-6.79607,0.16561 -13.59171,0.35546 -20.38671,0.54132l-0.40633,-0.48041l-1.68683,-0.10485l-1.16063,-1.22854l-5.15375,-0.03681l-9.26892,2.24701l-0.50781,0.26619c-3.70245,-0.62225 -7.37485,-1.22796 -11.00578,-1.80944c-8.92744,-1.4297 -19.10909,-3.69714 -28.437,-4.33347c-21.719,-1.48162 -43.43993,-2.93505 -65.16191,-4.3724c-0.00452,-0.00479 -0.00905,-0.00959 -0.01357,-0.01439z" data-paper-data="{&quot;index&quot;:null}"/><path d="M333.99999,198.74736c0,0.29294 0,0.58485 0,0.87573c-0.04598,-0.29132 -0.09297,-0.58249 -0.14101,-0.87351c0.05943,-0.00085 0.1065,-0.00159 0.14101,-0.00223z" data-paper-data="{&quot;index&quot;:null}"/></g></g></svg>