<svg version="1.1" xmlns="http://www.w3.org/2000/svg" xmlns:xlink="http://www.w3.org/1999/xlink" width="188" height="190" viewBox="0,0,188,190"><g transform="translate(-146,-85)"><g data-paper-data="{&quot;isPaintingLayer&quot;:true}" fill="#9966ff" fill-rule="nonzero" stroke="none" stroke-width="0" stroke-linecap="butt" stroke-linejoin="miter" stroke-miterlimit="10" stroke-dasharray="" stroke-dashoffset="0" style="mix-blend-mode: normal"><path d="M146,109.87778c0,-12.02818 14.96134,-24.87778 28.2,-24.87778c23.79145,0 102.73647,0 140,0c12.09597,0 19.8,8.52696 19.8,17.27778c0,16.30167 0,73.35285 0,117.47643c-2.2598,1.20031 -4.55599,2.43196 -6.33425,3.42046c-5.47715,3.04463 -9.44734,8.2371 -14.07678,12.4605c-8.58445,7.83152 -16.99646,15.85774 -25.77946,23.46592c-2.82893,2.45053 -12.21148,8.80583 -20.01133,15.89891h-88.5424c-5.87136,-9.42314 -13.63159,-16.95095 -22.0688,-24.93015c-3.76331,-3.55902 -6.99568,-7.87663 -11.18698,-10.86295c0,-42.06151 0,-108.73893 0,-129.32912z"/><path d="M146,102.27778c0,-8.75082 7.70403,-17.27778 19.8,-17.27778c14.02268,0 33.94788,0 54.61531,0c-0.05402,0.46758 -0.08198,0.95517 -0.08198,1.46296c0,6.59826 4.73397,9.7985 10,10c16.68011,0.63827 32.50767,-1.31758 48.7954,-0.57083c0.78021,0.5668 1.64553,1.02358 2.57316,1.34753c0.31023,0.10834 0.62743,0.20182 0.95074,0.2796c3.09403,1.50271 6.08151,3.76534 9.03713,5.33791c6.6126,3.51829 13.76856,5.96926 20.30025,9.63561c10.68675,5.99865 15.17496,10.53075 22.00998,17.77648c0,23.83056 0,59.51361 0,89.48496c-2.2598,1.20031 -4.55599,2.43196 -6.33425,3.42046c-5.47715,3.04463 -9.44734,8.2371 -14.07678,12.4605c-8.58445,7.83152 -16.99646,15.85774 -25.77946,23.46592c-2.82893,2.45053 -12.21148,8.80583 -20.01133,15.89891h-88.5424c-5.87136,-9.42314 -13.63159,-16.95095 -22.0688,-24.93015c-3.76331,-3.55902 -6.99568,-7.87663 -11.18698,-10.86295c0,-44.83859 0,-118.09133 0,-136.92912z" data-paper-data="{&quot;index&quot;:null}"/><path d="M146,120.7931c4.1913,-2.98632 7.42367,-7.30393 11.18698,-10.86295c8.43722,-7.97919 16.19744,-15.50701 22.0688,-24.93015h88.54239c7.79985,7.09308 17.1824,13.44838 20.01133,15.89891c8.783,7.60818 17.195,15.6344 25.77945,23.46592c4.62944,4.2234 8.59964,9.41588 14.07678,12.4605c1.77827,0.9885 4.07446,2.22016 6.33425,3.42046c0,29.97135 0,65.6544 0,89.48496c-6.83502,7.24573 -11.32323,11.77783 -22.00998,17.77648c-6.53169,3.66635 -13.68764,6.11732 -20.30025,9.63561c-2.95563,1.57257 -5.94311,3.83519 -9.03714,5.3379c-0.32331,0.07778 -0.64051,0.17126 -0.95074,0.2796c-0.92764,0.32395 -1.79295,0.78072 -2.57316,1.34752c-16.28774,0.74676 -32.11529,-1.2091 -48.7954,-0.57083c-5.26603,0.2015 -10,3.40174 -10,10c0,0.50779 0.02796,0.99538 0.08198,1.46296c-20.66743,0 -40.59263,0 -54.61531,0c-12.09597,0 -19.8,-8.52696 -19.8,-17.27778c0,-18.83779 0,-92.09053 0,-136.92912z" data-paper-data="{&quot;index&quot;:null}"/><path d="M334,257.72222c0,8.75082 -7.70403,17.27778 -19.8,17.27778c-14.02269,0 -33.94789,0 -54.61532,0c0.05402,-0.46758 0.08198,-0.95517 0.08198,-1.46296c0,-6.59826 -4.73397,-9.7985 -10,-10c-16.68011,-0.63827 -32.50767,1.31759 -48.7954,0.57083c-0.78021,-0.5668 -1.64553,-1.02358 -2.57316,-1.34753c-0.31023,-0.10834 -0.62743,-0.20182 -0.95074,-0.27959c-3.09403,-1.50272 -6.08151,-3.76534 -9.03713,-5.3379c-6.6126,-3.5183 -13.76856,-5.96927 -20.30025,-9.63561c-10.68675,-5.99865 -15.17496,-10.53075 -22.00998,-17.77649c0,-23.83056 0,-59.51361 0,-89.48496c2.2598,-1.2003 4.55599,-2.43196 6.33425,-3.42046c5.47715,-3.04462 9.44734,-8.2371 14.07678,-12.4605c8.58445,-7.83152 16.99645,-15.85773 25.77945,-23.46591c2.82893,-2.45053 12.21148,-8.80583 20.01133,-15.89892h88.5424c5.87136,9.42314 13.63159,16.95095 22.0688,24.93015c3.76331,3.55902 6.99568,7.87663 11.18698,10.86296c0,44.83859 0,118.09133 0,136.92912z" data-paper-data="{&quot;index&quot;:null}"/></g></g></svg>